<?xml version="1.0" encoding="UTF-8"?>
<svg id="Layer_1" data-name="Layer 1" xmlns="http://www.w3.org/2000/svg" viewBox="0 0 813.00937 922.94211">
  <circle cx="167.86596" cy="694.42263" r="49.95579" transform="translate(-441.86415 322.09084) rotate(-45)" fill="#ebff94"/>
  <circle cx="324.11851" cy="138.2986" r="49.95581" transform="translate(72.31251 384.82051) rotate(-67.50001)" fill="#ff746c"/>
  <circle cx="406.45166" cy="461.5462" r="66.40738" transform="translate(-92.83274 102.45995) rotate(-12.90811)" fill="#2e92ff"/>
  <path d="m791.44899,603.07502c-7.6624,8.9394-17.278,16.1511-28.1706,20.8837,13.4467,21.7852,17.954,39.1383,11.5687,50.1811-12.0195,20.7336-62.5762,19.3063-134.7679.2254-31.8514-8.4137-67.3087-20.433-105.0948-35.7579,3.6057-31.1753,6.3101-64.0785,7.9628-98.409,28.8467-18.555,55.9655-37.3354,81.1312-56.0406,14.273,11.1931,27.7949,22.236,40.4153,33.1286,5.7092-10.8174,13.8975-20.0575,23.8887-27.0438-10.9678-9.4652-22.6116-19.0808-34.7813-28.6963,30.4993-24.114,57.3177-47.8524,79.7039-70.3888,64.6044-64.9801,93.9769-123.57482,72.7927-160.30922-13.6119-23.5201-45.3325-33.5818-89.6397-31.6254,5.0575,9.5095,7.9356,20.347,7.9356,31.8482,0,.9467-.0332,1.8855-.0716,2.8229,26.3025-1.0179,44.0349,3.7126,50.5252,14.9084,11.9443,20.80862-14.5736,63.9283-67.1586,116.88892-23.2125,23.3627-51.383,48.0777-83.6102,73.1683-25.1657-18.7052-52.2845-37.4856-81.1311-56.0406-1.6527-34.3305-4.3571-67.2337-7.9629-98.4091,21.0251-8.5689,41.3262-16.0874,60.6893-22.5244-4.7232-9.25953-7.4055-19.72653-7.4055-30.81443,0-1.6111.0765-3.2036.1872-4.7871-18.6615,6.1124-38.1778,13.1797-58.3539,21.1661-5.6341-38.387-12.7706-73.4687-21.1091-104.1934C484.95349,54.7636,448.89519,0,406.45169,0c-27.194,0-51.7587,22.4614-72.2669,61.9753,12.1697,1.5775,23.3628,6.0096,33.0534,12.5451,12.5453-24.4895,25.9169-38.2367,39.2135-38.2367,23.9637,0,48.0026,44.547,67.5341,116.5133,8.639,31.7764,15.9257,68.5108,21.5599,109.00123-28.7716,12.395-58.5948,26.5179-89.094,42.2183-30.4242-15.7004-60.3226-29.8232-89.0941-42.2183,2.2536-16.07593,4.7327-31.62613,7.5122-46.42503h-.6762c-12.4701,0-24.1891-2.9298-34.6309-8.1882-2.4039,12.9208-4.6575,26.3675-6.6858,40.265-36.1335-14.3481-70.0883-25.6916-100.813-33.8046-88.6433-23.4379-153.999-19.5316-175.2583,17.2028-10.8843,18.8738-8.4193,43.51932,5.3099,71.83562,7.9506-8.5139,18.0448-15.0005,29.4255-18.5641-6.904-14.8645-8.34-26.912-3.4849-35.31742,12.0195-20.7336,62.5762-19.3063,134.7678-.2255,31.8516,8.4888,67.2337,20.50822,105.095,35.83302-3.6058,31.1754-6.3102,64.1537-7.9629,98.4091-28.8467,18.555-55.9655,37.3353-81.1312,56.0406-24.9898-19.456-47.527-38.68292-67.2182-57.2318-5.8721,10.7425-14.5602,19.7287-25.0599,25.9795,18.6204,17.5219,39.6443,35.6213,62.7554,53.939-30.4993,24.1139-57.2425,47.8523-79.7038,70.3887C14.99379,596.91502-14.37871,655.50972,6.80559,692.24411c13.5218,23.4379,44.9977,33.5042,89.094,31.6262-3.3053-8.639-5.1834-18.0292-5.1834-27.8701,0-2.3287.0752-4.6575.3005-6.9111-27.6447,1.4273-46.2748-3.2303-52.9606-14.799-12.0194-20.8087,14.4984-63.9283,67.2336-117.1143,23.2125-23.3628,51.3831-48.0778,83.6102-73.1683,25.1656,18.7052,52.2845,37.4856,81.1311,56.0406,1.5776,34.33048,4.3571,67.3088,7.9629,98.4842-15.3247,6.2351-30.1988,11.8692-44.6221,16.9774,6.235,10.1414,10.2165,21.7853,11.193,34.3305,12.3951-4.357,25.1657-9.1648,38.2369-14.3482,5.6341,38.3871,12.7706,73.4688,21.1091,104.1935,24.0389,88.493,60.0972,143.2566,102.5408,143.2566,21.2036,0,40.8135-13.6683,58.1275-38.3808-12.0591-1.9375-23.0678-7.0505-32.1392-14.45671-8.5045,10.91021-17.2186,16.77921-25.9132,16.77921-24.0388,0-48.0777-44.547-67.6092-116.5133-8.639-31.7765-15.9258-68.5108-21.5599-109.0013,28.7715-12.4701,58.5947-26.593,89.0941-42.2933,30.4241,15.7003,60.3224,29.8983,89.094,42.2933-4.4368,31.8263-9.9022,61.4032-16.2053,88.06039,12.7084.72691,24.492,4.95341,34.4022,11.73261,6.3204-26.05461,11.8266-54.7902,16.3589-85.6702,36.1333,14.2731,70.0883,25.6915,100.8129,33.8047,88.6433,23.4378,153.999,19.5315,175.2584-17.2029,13.07107-22.6115,6.98626-53.4864-14.7238-89.0188Zm-246.9993-176.0847c17.2779,11.4936,33.8047,23.06228,49.5802,34.5559-15.7755,11.5687-32.3023,23.13738-49.5802,34.6309.2255-11.4184.3757-22.9871.3757-34.6309s-.1503-23.1374-.3757-34.5559Zm-275.9962,69.1868c-17.2779-11.49352-33.8046-23.0622-49.5801-34.6309,15.7004-11.5687,32.3022-23.1374,49.5801-34.631-.2253,11.41838-.3756,22.9871-.3756,34.6309s.1503,23.2126.3756,34.631Zm231.7497-197.04352c2.1033,19.38132,3.8312,39.51392,5.1834,60.17232-9.7658-5.9346-19.6819-11.7941-29.7481-17.5784-10.1414-5.7844-20.2077-11.4936-30.1988-16.9775,18.6301-9.1648,36.8846-17.7286,54.7635-25.61642Zm-187.5031,0c17.8037,7.88782,36.1334,16.45162,54.6884,25.61642-9.9911,5.4839-20.0574,11.1931-30.1237,17.05258-10.0663,5.78432-19.9823,11.64382-29.7481,17.57842,1.3522-20.7335,3.08-40.7909,5.1834-60.24742Zm0,324.75c-2.1034-19.38128-3.8312-39.51388-5.1834-60.24738,9.5404,5.78438,19.2311,11.4936,29.072,17.2028.3004.2254.676.4508.9765.601,9.9912,5.7843,19.9824,11.4184,29.8984,16.9023-18.555,9.1649-36.8847,17.7287-54.7635,25.54128Zm187.428.07522c-17.8789-7.8878-36.1334-16.4516-54.7635-25.6165,9.8408-5.40872,19.7569-10.96772,29.5978-16.6769l.5259-.3005c10.1413-5.8594,20.0574-11.7189,29.8232-17.6535-1.3522,20.7335-3.08,40.7909-5.1834,60.2474Zm7.437-103.9683c-16.0008,10.0663-32.6027,19.9824-49.5802,29.8233-.3004.1502-.6009.3756-.9014.52578-16.9774,9.841-33.8047,19.156-50.5568,28.02032-16.9022-8.9394-33.9548-18.4047-51.1576-28.3207l-.2254-.1502s-.3756-.22542-.4507-.22542c-16.9024-9.76578-33.354-19.68178-49.3548-29.67288-.6761-19.0809-1.0517-38.6125-1.0517-58.4445s.3756-39.2885,1.0517-58.4445c16.1511-10.1414,32.8281-20.1326,49.9558-30.0486h.0751c17.1276-9.916,34.1802-19.3814,51.0826-28.3208,16.9022,9.0146,33.9548,18.4048,51.0825,28.3208,17.1277,9.8409,33.8798,19.9072,50.0309,30.0486.6761,19.156,1.0517,38.6124,1.0517,58.4444s-.3757,39.3636-1.0517,58.4444Z" fill="#98cbff"/>
  <circle cx="727.06989" cy="551.31632" r="49.9558" fill="#b87cff"/>
  <circle cx="475.41309" cy="817.37058" r="49.95573" transform="translate(-398.28941 1178.97287) rotate(-82.29949)" fill="#c256a3"/>
  <circle cx="656.33071" cy="231.07083" r="49.95578" transform="translate(280.64748 816.7549) rotate(-76.71749)" fill="#05d0b6"/>
  <circle cx="61.84101" cy="349.0892" r="49.95571" transform="translate(-228.73053 145.97406) rotate(-45)" fill="#b9f6ff"/>
</svg>