<?xml version="1.0" encoding="UTF-8"?>
<svg id="Layer_1" data-name="Layer 1" xmlns="http://www.w3.org/2000/svg" xmlns:xlink="http://www.w3.org/1999/xlink" viewBox="0 0 813.0094 922.94211">
  <defs>
    <linearGradient id="linear-gradient" x1="117.91018" y1="694.42266" x2="217.82169" y2="694.42266" gradientTransform="translate(540.19775 84.69252) rotate(45)" gradientUnits="userSpaceOnUse">
      <stop offset="0" stop-color="#ff45d2"/>
      <stop offset=".08671" stop-color="#f744cf"/>
      <stop offset=".2171" stop-color="#e243c9"/>
      <stop offset=".37492" stop-color="#c142c0"/>
      <stop offset=".55426" stop-color="#923fb2"/>
      <stop offset=".7517" stop-color="#563da1"/>
      <stop offset=".96132" stop-color="#0e398c"/>
      <stop offset="1" stop-color="#003988"/>
    </linearGradient>
    <linearGradient id="linear-gradient-2" x1="274.16278" y1="138.2986" x2="374.07428" y2="138.2986" gradientTransform="translate(332.19115 -213.99977) rotate(68.20513)" xlink:href="#linear-gradient"/>
    <linearGradient id="linear-gradient-3" x1="340.04428" y1="461.54617" x2="472.85897" y2="461.54617" gradientTransform="translate(131.63882 -88.64081) rotate(14.82647)" xlink:href="#linear-gradient"/>
    <linearGradient id="linear-gradient-4" x1="0" y1="461.47105" x2="813.0094" y2="461.47105" gradientTransform="matrix(1,0,0,1,0,0)" xlink:href="#linear-gradient"/>
    <linearGradient id="linear-gradient-5" x1="677.11407" y1="551.31632" x2="777.02569" y2="551.31632" gradientTransform="matrix(1,0,0,1,0,0)" xlink:href="#linear-gradient"/>
    <linearGradient id="linear-gradient-6" x1="425.45727" y1="817.37056" x2="525.36887" y2="817.37056" gradientTransform="translate(1220.35943 234.98997) rotate(82.16646)" xlink:href="#linear-gradient"/>
    <linearGradient id="linear-gradient-7" x1="606.37497" y1="231.07085" x2="706.28647" y2="231.07085" gradientTransform="translate(697.74397 -463.51442) rotate(74.01674)" xlink:href="#linear-gradient"/>
    <linearGradient id="linear-gradient-8" x1="11.88529" y1="349.08917" x2="111.79678" y2="349.08917" gradientTransform="translate(264.95615 58.51766) rotate(45)" xlink:href="#linear-gradient"/>
  </defs>
  <circle cx="167.86596" cy="694.42263" r="49.95579" transform="translate(-441.86415 322.09084) rotate(-45)" fill="url(#linear-gradient)"/>
  <circle cx="324.1185" cy="138.2986" r="49.9558" transform="translate(75.36537 387.90066) rotate(-68.20513)" fill="url(#linear-gradient-2)"/>
  <circle cx="406.45166" cy="461.5462" r="66.40739" transform="translate(-104.57344 119.37491) rotate(-14.82647)" fill="url(#linear-gradient-3)"/>
  <path d="m791.44899,603.07502c-7.6624,8.9394-17.278,16.1511-28.17063,20.8837,13.44673,21.7852,17.95403,39.1383,11.56873,50.1811-12.01953,20.7336-62.57622,19.3063-134.76792.2254-31.8514-8.4137-67.3087-20.433-105.0948-35.7579,3.6057-31.1753,6.3101-64.0785,7.9628-98.409,28.8467-18.555,55.96552-37.3354,81.1312-56.0406,14.273,11.1931,27.7949,22.236,40.41532,33.1286,5.70918-10.8174,13.89748-20.0575,23.88868-27.0438-10.9678-9.4652-22.6116-19.0808-34.7813-28.6963,30.4993-24.114,57.3177-47.8524,79.7039-70.3888,64.60442-64.9801,93.97692-123.57482,72.79272-160.30922-13.6119-23.5201-45.33253-33.5818-89.63972-31.6254,5.0575,9.5095,7.9356,20.347,7.9356,31.8482,0,.9467-.0332,1.8855-.0716,2.8229,26.3025-1.0179,44.0349,3.7126,50.52522,14.9084,11.9443,20.80862-14.57363,63.9283-67.15862,116.88892-23.2125,23.3627-51.383,48.0777-83.6102,73.1683-25.16568-18.7052-52.2845-37.4856-81.1311-56.0406-1.6527-34.3305-4.3571-67.2337-7.9629-98.4091,21.0251-8.5689,41.3262-16.0874,60.68932-22.5244-4.72322-9.25953-7.40552-19.72653-7.40552-30.81443,0-1.6111.07652-3.2036.1872-4.7871-18.6615,6.1124-38.1778,13.1797-58.3539,21.1661-5.6341-38.387-12.7706-73.4687-21.1091-104.1934C484.95347,54.7636,448.89517,0,406.45169,0c-27.194,0-51.75871,22.4614-72.26691,61.9753,12.1697,1.5775,23.3628,6.0096,33.0534,12.5451,12.5453-24.4895,25.9169-38.2367,39.21352-38.2367,23.96368,0,48.00258,44.547,67.53408,116.5133,8.639,31.7764,15.9257,68.5108,21.55992,109.00123-28.77162,12.395-58.59482,26.5179-89.094,42.2183-30.42422-15.7004-60.32261-29.8232-89.09411-42.2183,2.2536-16.07593,4.7327-31.62613,7.5122-46.42503h-.6762c-12.4701,0-24.1891-2.9298-34.63089-8.1882-2.40391,12.9208-4.65751,26.3675-6.68581,40.265-36.1335-14.3481-70.0883-25.6916-100.813-33.8046-88.6433-23.4379-153.999-19.5316-175.2583,17.2028-10.8843,18.8738-8.4193,43.51932,5.3099,71.83562,7.9506-8.5139,18.0448-15.0005,29.4255-18.5641-6.904-14.8645-8.34-26.912-3.4849-35.31742,12.0195-20.7336,62.5762-19.3063,134.7678-.2255,31.8516,8.4888,67.2337,20.50822,105.095,35.83302-3.6058,31.1754-6.31019,64.1537-7.9629,98.4091-28.8467,18.555-55.9655,37.3353-81.1312,56.0406-24.9898-19.456-47.527-38.68292-67.2182-57.2318-5.8721,10.7425-14.5602,19.7287-25.05989,25.9795,18.62039,17.5219,39.64429,35.6213,62.75539,53.939-30.4993,24.1139-57.2425,47.8523-79.7038,70.3887C14.99379,596.91502-14.37871,655.50972,6.80559,692.24411c13.5218,23.4379,44.9977,33.5042,89.094,31.6262-3.3053-8.639-5.1834-18.0292-5.1834-27.8701,0-2.3287.0752-4.6575.30051-6.9111-27.64471,1.4273-46.27481-3.2303-52.96061-14.799-12.01939-20.8087,14.4984-63.9283,67.23361-117.1143,23.21249-23.3628,51.38309-48.0778,83.61019-73.1683,25.1656,18.7052,52.2845,37.4856,81.1311,56.0406,1.5776,34.33048,4.3571,67.3088,7.9629,98.4842-15.3247,6.2351-30.1988,11.8692-44.6221,16.9774,6.235,10.1414,10.2165,21.7853,11.193,34.3305,12.3951-4.357,25.1657-9.1648,38.23691-14.3482,5.63409,38.3871,12.77059,73.4688,21.10909,104.1935,24.03891,88.493,60.0972,143.2566,102.5408,143.2566,21.2036,0,40.8135-13.6683,58.1275-38.3808-12.0591-1.9375-23.0678-7.0505-32.1392-14.45671-8.5045,10.91021-17.2186,16.77921-25.91318,16.77921-24.03882,0-48.07771-44.547-67.60921-116.5133-8.639-31.7765-15.92579-68.5108-21.5599-109.0013,28.7715-12.4701,58.5947-26.593,89.09411-42.2933,30.42408,15.7003,60.32238,29.8983,89.094,42.2933-4.43682,31.8263-9.90222,61.4032-16.20532,88.06039,12.7084.72691,24.492,4.95341,34.4022,11.73261,6.3204-26.05461,11.8266-54.7902,16.3589-85.6702,36.1333,14.2731,70.0883,25.6915,100.8129,33.8047,88.64332,23.4378,153.99902,19.5315,175.25842-17.2029,13.0711-22.6115,6.9863-53.4864-14.7238-89.0188Zm-246.9993-176.0847c17.27788,11.4936,33.80468,23.06228,49.58018,34.5559-15.7755,11.5687-32.3023,23.13738-49.58018,34.6309.22548-11.4184.37568-22.9871.37568-34.6309s-.1503-23.1374-.37568-34.5559Zm-275.99621,69.1868c-17.2779-11.49352-33.8046-23.0622-49.5801-34.6309,15.7004-11.5687,32.3022-23.1374,49.5801-34.631-.2253,11.41838-.3756,22.9871-.3756,34.6309s.1503,23.2126.3756,34.631Zm231.74969-197.04352c2.1033,19.38132,3.8312,39.51392,5.1834,60.17232-9.7658-5.9346-19.68188-11.7941-29.7481-17.5784-10.1414-5.7844-20.2077-11.4936-30.19878-16.9775,18.63008-9.1648,36.88458-17.7286,54.76348-25.61642Zm-187.5031,0c17.8037,7.88782,36.1334,16.45162,54.6884,25.61642-9.9911,5.4839-20.0574,11.1931-30.1237,17.05258-10.0663,5.78432-19.9823,11.64382-29.74809,17.57842,1.35219-20.7335,3.08-40.7909,5.18339-60.24742Zm0,324.75c-2.10339-19.38128-3.8312-39.51388-5.18339-60.24738,9.54039,5.78438,19.23109,11.4936,29.072,17.2028.30039.2254.676.4508.97649.601,9.9912,5.7843,19.9824,11.4184,29.8984,16.9023-18.555,9.1649-36.8847,17.7287-54.7635,25.54128Zm187.428.07522c-17.8789-7.8878-36.13338-16.4516-54.7635-25.6165,9.8408-5.40872,19.7569-10.96772,29.5978-16.6769l.5259-.3005c10.1413-5.8594,20.05742-11.7189,29.8232-17.6535-1.3522,20.7335-3.08,40.7909-5.1834,60.2474Zm7.437-103.9683c-16.0008,10.0663-32.6027,19.9824-49.5802,29.8233-.3004.1502-.6009.3756-.9014.52578-16.9774,9.841-33.8047,19.156-50.55678,28.02032-16.90222-8.9394-33.95482-18.4047-51.15761-28.3207l-.22539-.1502s-.37561-.22542-.45071-.22542c-16.9024-9.76578-33.354-19.68178-49.3548-29.67288-.6761-19.0809-1.0517-38.6125-1.0517-58.4445s.3756-39.2885,1.0517-58.4445c16.1511-10.1414,32.8281-20.1326,49.9558-30.0486h.0751c17.12761-9.916,34.1802-19.3814,51.08261-28.3208,16.90218,9.0146,33.95478,18.4048,51.08248,28.3208,17.1277,9.8409,33.8798,19.9072,50.0309,30.0486.6761,19.156,1.0517,38.6124,1.0517,58.4444s-.3757,39.3636-1.0517,58.4444Z" fill="url(#linear-gradient-4)"/>
  <circle cx="727.06987" cy="551.31632" r="49.95581" fill="url(#linear-gradient-5)"/>
  <circle cx="475.41307" cy="817.37058" r="49.95573" transform="translate(-399.12668 1176.94321) rotate(-82.16646)" fill="url(#linear-gradient-6)"/>
  <circle cx="656.33071" cy="231.07083" r="49.95578" transform="translate(253.46769 798.4024) rotate(-74.01674)" fill="url(#linear-gradient-7)"/>
  <circle cx="61.84101" cy="349.0892" r="49.95571" transform="translate(-228.73053 145.97406) rotate(-45)" fill="url(#linear-gradient-8)"/>
</svg>